#!OML:ASF H:\Terrain\Patient Classification 1\Walking\steve\steve.ASF
:FULLY-SPECIFIED
:DEGREES
187
root 9.44694 15.9157 7.33341 8.50432 -6.69854 -6.46053
lowerback -1.97082 5.18922 4.56891
upperback -3.34319 6.90488 -0.0195299
thorax -1.80864 3.35771 -2.49965
lowerneck -10.3733 -2.60642 -2.32348
upperneck 13.374 -4.22058 7.0571
head 5.95685 -1.63949 2.26547
rclavicle -1.32005e-014 1.27222e-014
rhumerus -18.0604 10.3247 -82.0001
rradius 68.9019
rwrist -15.9331
rhand -23.1067 -33.7791
rfingers 7.12502
rthumb 3.34002 -63.7327
lclavicle -1.32005e-014 1.27222e-014
lhumerus -66.729 18.398 48.0986
lradius 3.28217
lwrist -18.423
lhand -25.7081 -1.71751
lfingers 7.12502
lthumb 0.827656 28.2606
rfemur 9.97416 6.01325 27.3839
rtibia 30.4011
rfoot 12.8212 8.90332
rtoes 0.671549
lfemur -43.6302 3.94353 -14.0004
ltibia 32.2978
lfoot -4.10307 4.41719
ltoes -2.9216
188
root 9.46034 15.9266 7.60994 8.37256 -6.45435 -5.27982
lowerback -1.80249 4.97811 3.22512
upperback -3.43654 6.63212 -0.427397
thorax -2.1163 3.23882 -2.21221
lowerneck -10.5297 -2.61457 -2.49995
upperneck 13.402 -4.29331 7.63737
head 6.01355 -1.63619 2.47163
rclavicle 2.3469e-014 4.37326e-015
rhumerus -19.5345 9.77045 -82.5787
rradius 69.0169
rwrist -16.1449
rhand -24.4696 -35.2945
rfingers 7.12502
rthumb 2.02385 -65.2646
lclavicle 2.3469e-014 4.37326e-015
lhumerus -66.7393 18.7897 47.5648
lradius 4.00079
lwrist -19.256
lhand -24.6636 -1.34547
lfingers 7.12502
lthumb 1.83643 28.6264
rfemur 8.28118 6.15092 26.1255
rtibia 34.6029
rfoot 15.2172 6.71094
rtoes -4.6729
lfemur -43.6151 3.75929 -15.6652
ltibia 34.3445
lfoot -4.28669 3.49332
ltoes -2.21948
189
root 9.47697 15.9296 7.88089 7.98412 -6.22774 -4.25836
lowerback -1.30897 4.75842 2.1319
upperback -3.47161 6.3474 -0.753685
thorax -2.52299 3.11077 -2.00017
lowerneck -10.5491 -2.68538 -2.92344
upperneck 13.2503 -4.4251 8.38862
head 6.00314 -1.66829 2.769
rclavicle -5.26779e-014 -1.94809e-014
rhumerus -21.1699 9.25693 -83.2108
rradius 69.2985
rwrist -16.5348
rhand -23.2941 -33.8845
rfingers 7.12502
rthumb 3.1591 -63.8409
lclavicle -5.26779e-014 -1.94809e-014
lhumerus -66.6478 19.3451 47.0758
lradius 4.41085
lwrist -20.3609
lhand -24.3288 -1.40286
lfingers 7.12502
lthumb 2.15978 28.566
rfemur 6.79397 6.07595 25.0216
rtibia 38.74
rfoot 17.4526 4.65733
rtoes -5.48075
lfemur -43.1976 3.36162 -16.9777
ltibia 35.9952
lfoot -4.40874 2.37289
ltoes -3.88735
190
root 9.49984 15.9515 8.15198 7.58733 -5.9635 -3.62045
lowerback -1.00679 4.63614 1.66814
upperback -3.26943 6.17968 -1.05015
thorax -2.50629 3.03602 -2.06479
lowerneck -10.5421 -2.81041 -2.92844
upperneck 12.7666 -4.57497 8.49007
head 5.86221 -1.74548 2.78663
rclavicle 6.29899e-014 -1.11319e-014
rhumerus -22.566 8.44061 -83.7272
rradius 69.5218
rwrist -16.6209
rhand -24.778 -35.1777
rfingers 7.12502
rthumb 1.72597 -65.1505
lclavicle 6.29899e-014 -1.11319e-014
lhumerus -65.8691 20.1007 46.8595
lradius 4.39608
lwrist -21.4187
lhand -24.4853 -2.44973
lfingers 7.12502
lthumb 2.0087 27.5206
rfemur 5.13354 5.93661 24.3801
rtibia 42.8402
rfoot 19.7968 2.57815
rtoes -4.59817
lfemur -42.6346 2.93455 -17.7722
ltibia 37.1552
lfoot -4.72682 1.63423
ltoes -2.72614
191
root 9.51741 15.988 8.41731 7.22226 -5.88278 -2.91245
lowerback -0.741631 4.56267 1.09494
upperback -2.98806 6.07303 -1.36634
thorax -2.39338 2.99524 -2.08077
lowerneck -10.9425 -2.82229 -2.59621
upperneck 12.6199 -4.57831 8.12259
head 5.86951 -1.75199 2.61005
rclavicle -6.75371e-014 -1.51076e-014
rhumerus -23.8607 7.73753 -84.2432
rradius 69.5599
rwrist -16.6027
rhand -25.3722 -34.8222
rfingers 7.12502
rthumb 1.15214 -64.7989
lclavicle -6.75371e-014 -1.51076e-014
lhumerus -64.8733 21.0939 46.7388
lradius 4.53248
lwrist -22.2111
lhand -23.8077 -2.95188
lfingers 7.12502
lthumb 2.66309 27.0112
rfemur 3.3826 6.14895 23.7197
rtibia 46.8947
rfoot 21.7681 0.405948
rtoes -3.9533
lfemur -41.7591 2.64354 -18.6313
ltibia 37.8073
lfoot -5.31108 1.31476
ltoes 0.138976
192
root 9.52808 16.0054 8.67225 6.80623 -6.08675 -2.01194
lowerback -0.305618 4.50393 0.140768
upperback -2.82994 5.97944 -1.63419
thorax -2.5466 2.96519 -1.86103
lowerneck -11.0516 -2.75168 -2.55091
upperneck 12.4171 -4.46183 8.03578
head 5.815 -1.70207 2.58335
rclavicle -5.79582e-014 -1.74931e-014
rhumerus -25.3562 7.32393 -84.8294
rradius 69.5668
rwrist -16.8708
rhand -25.4574 -35.3477
rfingers 7.12502
rthumb 1.0698 -65.3247
lclavicle -5.79582e-014 -1.74931e-014
lhumerus -64.1505 22.2418 46.5705
lradius 4.73652
lwrist -22.6492
lhand -23.2369 -3.00906
lfingers 7.12502
lthumb 3.21432 26.9465
rfemur 1.91221 6.59452 22.7083
rtibia 50.8577
rfoot 22.9907 -4.44831
rtoes 7.71893
lfemur -40.3514 2.69934 -19.8445
ltibia 37.8818
lfoot -5.80357 0.860803
ltoes 1.64109
193
root 9.53963 16.041 8.91791 6.64935 -6.3113 -1.04205
lowerback -0.0149865 4.37608 -0.954607
upperback -2.77589 5.78368 -1.87216
thorax -2.74392 2.88755 -1.52366
lowerneck -10.6174 -2.48072 -2.85347
upperneck 11.6739 -4.06655 8.55967
head 5.5036 -1.51427 2.83342
rclavicle 4.2366e-014 1.43125e-014
rhumerus -26.681 7.11508 -85.4829
rradius 69.3876
rwrist -17.2907
rhand -25.4517 -37.0875
rfingers 7.12502
rthumb 1.07534 -67.0645
lclavicle 4.2366e-014 1.43125e-014
lhumerus -63.6476 23.5756 46.3041
lradius 5.07208
lwrist -23.222
lhand -23.3721 -4.20398
lfingers 7.12502
lthumb 3.08373 25.7535
rfemur 0.00355638 6.67044 21.4978
rtibia 54.5748
rfoot 22.7817 -9.8931
rtoes 19.0379
lfemur -39.056 2.83781 -21.1912
ltibia 37.7361
lfoot -6.31097 0.358998
ltoes 0.873942
194
root 9.5582 16.1174 9.16573 6.67234 -6.46368 0.486535
lowerback -0.0234237 4.19447 -2.50469
upperback -2.70395 5.50684 -2.30327
thorax -2.77579 2.7785 -1.10415
lowerneck -10.3848 -2.18395 -3.03653
upperneck 11.0827 -3.657 9.04415
head 5.26861 -1.30937 3.0485
rclavicle 1.13059e-014 -3.18055e-015
rhumerus -27.8205 6.95795 -86.1538
rradius 68.9954
rwrist -17.8598
rhand -25.692 -38.0977
rfingers 7.12502
rthumb 0.843267 -68.0758
lclavicle 1.13059e-014 -3.18055e-015
lhumerus -63.086 24.9723 46.032
lradius 5.7463
lwrist -24.2629
lhand -23.1065 -4.37459
lfingers 7.12502
lthumb 3.34025 25.579
rfemur -2.64229 5.94834 19.5958
rtibia 57.905
rfoot 23.8054 -7.47767
rtoes 2.75666
lfemur -37.9506 2.63316 -23.0439
ltibia 37.488
lfoot -6.99097 0.254267
ltoes 2.30665
195
root 9.58804 16.1676 9.42126 6.37149 -7.14819 0.510387
lowerback 0.271305 4.29294 -2.39996
upperback -2.55079 5.63266 -2.30541
thorax -2.77284 2.83787 -1.1835
lowerneck -10.754 -2.15495 -2.80089
upperneck 11.3636 -3.60713 8.54951
head 5.40164 -1.29306 2.85679
rclavicle 7.16122e-014 3.97569e-015
rhumerus -29.1206 6.84763 -86.7649
rradius 68.5789
rwrist -18.5679
rhand -26.2992 -39.6243
rfingers 7.12502
rthumb 0.256738 -69.6039
lclavicle 7.16122e-014 3.97569e-015
lhumerus -62.4233 26.3932 45.9416
lradius 6.31423
lwrist -25.5858
lhand -22.5145 -3.62987
lfingers 7.12502
lthumb 3.91192 26.314
rfemur -4.90476 6.04865 19.5003
rtibia 60.898
rfoot 22.7239 -5.26564
rtoes -12.4189
lfemur -36.4344 2.92929 -23.1247
ltibia 37.3336
lfoot -7.83789 0.288092
ltoes 6.78555
196
root 9.61232 16.1831 9.67386 6.10797 -7.69494 0.602099
lowerback 0.47602 4.3055 -2.48004
upperback -2.43061 5.64393 -2.26001
thorax -2.77615 2.84485 -1.10467
lowerneck -11.4545 -2.15135 -2.37792
upperneck 12.1442 -3.58614 7.57133
head 5.73674 -1.30033 2.47899
rclavicle 8.14769e-014 -7.95139e-015
rhumerus -30.3878 6.63733 -87.4969
rradius 67.9038
rwrist -19.2543
rhand -27.2028 -42.0771
rfingers 7.12502
rthumb -0.615993 -72.056
lclavicle 8.14769e-014 -7.95139e-015
lhumerus -61.7954 27.9697 45.864
lradius 6.55382
lwrist -26.9558
lhand -22.7893 -4.06918
lfingers 7.12502
lthumb 3.64661 25.8794
rfemur -6.87868 6.43037 19.3142
rtibia 63.5864
rfoot 19.2899 -6.67494
rtoes -9.02223
lfemur -34.874 3.27141 -23.4219
ltibia 37.1732
lfoot -8.79568 0.0778035
ltoes 8.20944
197
root 9.62786 16.1728 9.89965 5.94342 -8.19468 0.745934
lowerback 0.800395 4.2803 -2.68921
upperback -2.38628 5.59371 -2.23694
thorax -2.93532 2.82434 -0.990548
lowerneck -11.2659 -1.82344 -2.29692
upperneck 12.0622 -3.11429 7.32661
head 5.64813 -1.09079 2.42869
rclavicle -8.94531e-015 1.27222e-014
rhumerus -31.4871 6.11675 -88.2385
rradius 66.6981
rwrist -19.9362
rhand -27.7879 -43.6358
rfingers 7.12502
rthumb -1.18109 -73.6123
lclavicle -8.94531e-015 1.27222e-014
lhumerus -61.1 29.5902 45.7365
lradius 6.74988
lwrist -28.1881
lhand -22.6548 -4.85505
lfingers 7.12502
lthumb 3.77643 25.0912
rfemur -9.19888 6.87523 19.1677
rtibia 66.2739
rfoot 15.5966 -7.02286
rtoes -4.87493
lfemur -33.4877 3.87236 -23.9592
ltibia 36.9978
lfoot -9.65783 0.0254216
ltoes 3.36
198
root 9.65168 16.24 10.1377 5.74175 -8.38088 1.49706
lowerback 1.05483 4.1724 -3.38107
upperback -2.36308 5.41659 -2.37322
thorax -3.10638 2.74987 -0.764937
lowerneck -9.92292 -1.2515 -2.32509
upperneck 10.9476 -2.28583 7.44986
head 5.03268 -0.728986 2.53492
rclavicle -4.48011e-014 3.81667e-014
rhumerus -32.6254 5.45194 -88.7047
rradius 65.1618
rwrist -19.9711
rhand -27.2094 -43.6381
rfingers 7.12502
rthumb -0.622348 -73.6169
lclavicle -4.48011e-014 3.81667e-014
lhumerus -60.303 31.1208 45.7152
lradius 7.0313
lwrist -29.3208
lhand -21.9239 -6.12291
lfingers 7.12502
lthumb 4.48221 23.8097
rfemur -11.2444 6.70844 18.3325
rtibia 68.5012
rfoot 12.1786 -5.07608
rtoes -7.22304
lfemur -32.2566 3.58493 -24.788
ltibia 36.6932
lfoot -10.6352 0.144383
ltoes 2.74689
199
root 9.67351 16.2761 10.3804 5.62227 -8.46037 2.18062
lowerback 1.01882 4.04811 -3.96763
upperback -2.32106 5.23433 -2.50927
thorax -3.08176 2.66974 -0.570423
lowerneck -10.924 -1.60082 -2.1778
upperneck 12.2265 -2.78121 6.89125
head 5.61541 -0.95855 2.3011
rclavicle -7.47927e-014 1.90833e-014
rhumerus -33.9094 4.79515 -89.0254
rradius 63.8591
rwrist -19.2996
rhand -25.4035 -42.4372
rfingers 7.12502
rthumb 1.1219 -72.414
lclavicle -7.47927e-014 1.90833e-014
lhumerus -59.3322 32.6923 45.8151
lradius 7.35422
lwrist -30.5406
lhand -21.4368 -6.91009
lfingers 7.12502
lthumb 4.95256 23.012
rfemur -13.2437 6.41284 17.603
rtibia 70.4813
rfoot 8.57111 -3.25792
rtoes -10.3276
lfemur -30.8456 3.53573 -25.7392
ltibia 36.2066
lfoot -11.6655 0.0178535
ltoes -0.129564
